<svg height="511pt" viewBox="0 -68 511.9997 511" width="511pt" xmlns="http://www.w3.org/2000/svg"><path d="m149.917969 217.054688c-14.90625 0-28.976563-6.335938-41.414063-16.546876v73.523438c5.785156 15.851562 21.65625 27.238281 40.34375 27.238281 18.695313 0 34.574219-11.398437 40.351563-27.265625h.03125v-71.808594c-11.910157 9.21875-25.238281 14.859376-39.3125 14.859376zm0 0" fill="#ffe5c2"/><path d="m122.261719 217.054688c4.695312 0 9.304687-.640626 13.8125-1.820313-9.785157-2.570313-19.0625-7.738281-27.570313-14.726563v14.753907c4.488282 1.167969 9.078125 1.792969 13.757813 1.792969zm0 0" fill="#ffd0a4"/><path d="m161.570312 215.753906v58.25h-.03125c-4.28125 11.757813-14.113281 21.058594-26.523437 25.089844 4.339844 1.40625 8.988281 2.175781 13.828125 2.175781 18.699219 0 34.578125-11.398437 40.355469-27.265625h.027343v-71.808594c-8.566406 6.632813-17.871093 11.398438-27.65625 13.558594zm0 0" fill="#ffd0a4"/><path d="m267.851562 306.265625c-5.410156-30.179687-32.992187-52.261719-65.277343-52.261719h-13.375c-5.777344 15.867188-21.65625 27.265625-40.351563 27.265625-18.699218 0-34.574218-11.402343-40.355468-27.265625h-13.375c-32.285157 0-59.867188 22.078125-65.277344 52.261719l-22.339844 62.429687h282.691406zm0 0" fill="#ffe177"/><path d="m267.851562 306.265625c-5.410156-30.179687-32.992187-52.261719-65.277343-52.261719h-13.375c-1.347657 3.707032-3.257813 7.167969-5.617188 10.300782 14.941407 9.304687 25.773438 24.230468 28.953125 41.960937l22.339844 62.429687h55.320312zm0 0" fill="#ffcf5c"/><path d="m162.824219 309.269531h.019531v-16.363281c0-6.425781-5.210938-11.636719-11.636719-11.636719h-4.722656c-6.425781 0-11.632813 5.210938-11.632813 11.636719v16.363281h-.019531l-15.550781 59.425781h59.128906zm0 0" fill="#8a7e88"/><path d="m162.824219 309.269531h.019531v-16.363281c0-6.425781-5.210938-11.636719-11.636719-11.636719h-4.722656c-1.414063 0-2.769531.265625-4.023437.730469 4.4375 1.640625 7.609374 5.898438 7.609374 10.90625v16.363281h-.019531l15.589844 59.425781h12.769531zm0 0" fill="#635562"/><path d="m69.070312 163.894531c-3.304687-3.972656-19.03125-41.785156-18.417968-60.6875 1.40625-43.394531 11.394531-49.597656 32.566406-63.503906s29.046875-28.578125 79.621094-31.578125c36.289062-2.15625 78.230468 24.222656 85.679687 91.175781 1.933594 17.375-9.78125 46.269531-18.910156 67.394531zm0 0" fill="#8a7e88"/><path d="m229.613281 166.695312c9.125-21.125 20.839844-50.019531 18.90625-67.394531-7.449219-66.953125-49.390625-93.332031-85.679687-91.175781-4.378906.257812-8.429688.609375-12.207032 1.035156 31.453126 5.75 62.59375 33.34375 68.914063 90.140625.242187 2.1875.269531 4.5625.109375 7.078125zm0 0" fill="#635562"/><path d="m91.632812 92.644531c-2.53125-.488281-5.125-1.015625-7.8125-1.609375-16.300781-3.601562-26.636718 2.566406-33.171874 12.613282-.367188 19.035156 15.140624 56.304687 18.425781 60.246093zm0 0" fill="#635562"/><path d="m211.035156 100.617188c-25.140625-7.285157-47.296875 1.675781-98.242187-9.582032-50.6875-11.199218-43.742188 72.179688-43.722657 72.84375 15.382813 38.269532 45.8125 73.175782 80.847657 73.175782 34.167969 0 63.957031-33.199219 79.679687-70.339844-.929687 1.734375 6.457032-58.847656-18.5625-66.097656zm0 0" fill="#ffe5c2"/><path d="m211.035156 100.617188c-25.140625-7.285157-47.296875 1.675781-98.242187-9.582032-8.539063-1.886718-15.433594-1.082031-21.011719 1.550782 45.660156 8.824218 66.851562 1.117187 90.714844 8.03125 13.207031 3.828124 17.386718 22.511718 18.523437 39.046874 1.308594 19.03125-3.75 37.96875-14.328125 53.84375-13.453125 20.195313-31.191406 36.234376-51.039062 41.597657 4.648437 1.257812 9.414062 1.949219 14.265625 1.949219 34.167969 0 63.957031-33.199219 79.679687-70.339844-.929687 1.734375 6.457032-58.847656-18.5625-66.097656zm0 0" fill="#ffd0a4"/><path d="m385.214844 42.636719c-65.878906 0-119.285156 33.027343-119.285156 73.773437 0 11.222656 4.058593 21.859375 11.308593 31.382813 6.605469 8.675781 5.535157 21.011719-2.171875 28.710937l-21.28125 21.25 75.664063-16.117187c16.644531 5.453125 35.621093 8.546875 55.765625 8.546875 65.878906 0 119.285156-33.03125 119.285156-73.773438 0-40.746094-53.40625-73.773437-119.285156-73.773437zm0 0" fill="#9de599"/><path d="m385.214844 42.636719c-6.476563 0-12.828125.320312-19.023438.9375 56.835938 5.632812 100.261719 36.09375 100.261719 72.835937 0 36.738282-43.425781 67.199219-100.257813 72.832032 6.195313.617187 12.546876.941406 19.019532.941406 65.878906 0 119.285156-33.03125 119.285156-73.773438 0-40.746094-53.40625-73.773437-119.285156-73.773437zm0 0" fill="#74d4a2"/><path d="m290.414062 347.0625c-1.394531-3.902344-5.6875-5.933594-9.585937-4.535156-3.902344 1.394531-5.929687 5.6875-4.535156 9.589844l3.25 9.078124h-95.34375l-13.859375-52.832031v-15.457031c0-2.855469-.628906-5.570312-1.753906-8.003906.046874-.023438.09375-.042969.140624-.058594.015626-.007812.027344-.011719.042969-.019531.121094-.050781.242188-.101563.363281-.152344.011719-.003906.023438-.007813.035157-.015625 7.988281-3.386719 14.960937-8.726562 20.167969-15.507812 1.839843-2.382813 3.441406-4.953126 4.785156-7.644532h8.453125c28.757812 0 53.109375 19.382813 57.894531 46.085938.074219.410156.183594.8125.320312 1.203125l4.746094 13.257812c1.394532 3.902344 5.6875 5.929688 9.585938 4.535157 3.902344-1.394532 5.929687-5.6875 4.535156-9.589844l-4.539062-12.6875c-6.335938-33.53125-36.738282-57.804688-72.542969-57.804688h-5.847657v-20.707031c1.71875-1.433594 3.421876-2.945313 5.101563-4.53125 13.742187-13 26.019531-31.25 34.585937-51.414063.027344-.0625.054688-.121093.082032-.179687 11.316406-26.191406 21.507812-52.945313 19.480468-71.199219-3.613281-32.441406-15.507812-58.789062-34.398437-76.191406-16.546875-15.238281-37.570313-22.925781-59.179687-21.644531-42.855469 2.546875-57.152344 13.382812-72.285157 24.855469-3.460937 2.621093-7.039062 5.335937-11.011719 7.945312l-.523437.339844c-23.507813 15.441406-33.960937 24.160156-35.421875 69.191406-.632812 19.492188 13.664062 55.761719 19.277344 64.507812 8.382812 20.558594 20.601562 39.257813 34.464844 52.726563 1.355468 1.316406 2.722656 2.578125 4.105468 3.792969v22.507812h-5.886718c-35.804688 0-66.207032 24.273438-72.542969 57.808594l-22.136719 61.855469c-.820312 2.296875-.4765625 4.851562.929688 6.847656 1.40625 1.992187 3.695312 3.179687 6.132812 3.179687h40.699219c4.140625 0 7.5-3.355468 7.5-7.5 0-4.140624-3.359375-7.5-7.5-7.5h-30.050781l18.753906-52.402343c.140625-.390625.246094-.792969.320312-1.203125 4.789063-26.703125 29.136719-46.085938 57.894532-46.085938h8.453124c5.316407 10.625 14.488282 18.871094 25.535157 23.398438-1.125 2.433594-1.753907 5.148437-1.753907 8.003906v15.335938l-13.859374 52.953124h-30.292969c-4.144531 0-7.5 3.359376-7.5 7.5 0 4.144532 3.355469 7.5 7.5 7.5h206.992187c2.4375 0 4.726563-1.1875 6.132813-3.179687 1.40625-1.996094 1.75-4.550781.929687-6.847656zm-148.0625-54.15625c0-2.28125 1.851563-4.136719 4.132813-4.136719h4.722656c2.28125 0 4.136719 1.855469 4.136719 4.136719v8.863281h-12.992188zm-84.203124-189.453125c1.269531-39.148437 8.726562-44.046875 28.664062-57.136719l.523438-.34375c4.394531-2.886718 8.179687-5.753906 11.839843-8.527344 13.84375-10.496093 25.800781-19.558593 64.109375-21.835937 33.824219-1.988281 70.972656 23.351563 77.78125 84.519531.84375 7.574219-1.566406 18.386719-5.023437 29.261719-1.757813-11.886719-5.53125-23.625-13.296875-30.609375-2.824219-2.457031-6.015625-4.324219-9.625-5.367188-12.230469-3.542968-23.59375-3.5625-36.75-3.582031-15.386719-.027343-34.53125-.058593-61.960938-6.117187-1.820312-.402344-3.664062-.71875-5.515625-.929688-1.746093-.199218-3.445312-.300781-5.109375-.300781-8.917968 0-16.675781 2.851563-23.148437 8.519531-10.324219 9.050782-15.273438 24.085938-17.570313 38.214844-2.917968-9.527344-5.128906-19.238281-4.917968-25.765625zm18.328124 58.726563c-1.0625-17.332032.769532-48.417969 14.207032-60.007813 4.453125-3.839844 10.03125-5.300781 16.972656-4.429687 1.640625.210937 3.253906.5625 4.871094.914062 24.921875 5.386719 43.15625 6.054688 57.984375 6.152344 2.003906.015625 3.945312.019531 5.832031.019531 12.519531.023437 22.40625.039063 32.601562 2.992187.042969.011719.085938.027344.128907.039063 2.832031.875 7.710937 4.238281 10.710937 16.644531 2.828125 12.191406 2.761719 28.042969 2.386719 37.4375-.015625.394532-.035156.792969-.050781 1.191406-.042969.898438-.074219 1.640626-.09375 2.210938-20.417969 47.03125-51.171875 63.976562-71.679688 64.210938-.664062.003906-1.324218-.003907-1.988281-.027344-31.039063-1.078125-58.253906-34.183594-71.882813-67.347656zm72.1875 82.363281c.84375.015625 1.691407.019531 2.539063 0 10.355469-.21875 20.574219-3.054688 30.523437-8.46875v16.460937c-.402343.992188-.855468 1.964844-1.355468 2.910156-3.039063 5.746094-7.753906 10.445313-13.460938 13.648438-3.359375 1.679688-6.703125 3.113281-10.410156 3.886719-3.273438.683593-6.644531.925781-9.980469.71875-1.785156-.113281-3.625-.300781-5.367187-.726563-11.34375-2.378906-20.875-9.929687-25.148438-20.339844v-17.742187c10.585938 6.175781 21.5 9.410156 32.59375 9.648437.023438.003907.046875.003907.066406.003907zm-19.667968 116.652343 11.628906-44.425781h16.414062l11.652344 44.425781zm0 0"/><path d="m473.507812 57.863281c-23.699218-14.65625-55.054687-22.726562-88.292968-22.726562-9.644532 0-19.253906.6875-28.5625 2.042969-4.097656.597656-6.9375 4.40625-6.339844 8.503906.597656 4.101562 4.40625 6.925781 8.503906 6.339844 8.59375-1.25 17.476563-1.886719 26.398438-1.886719 30.488281 0 59.042968 7.273437 80.402344 20.484375 20.238281 12.515625 31.382812 28.777344 31.382812 45.789062 0 17.007813-11.144531 33.269532-31.382812 45.785156-21.359376 13.210938-49.914063 20.488282-80.402344 20.488282-18.632813 0-37.109375-2.828125-53.429688-8.175782-1.261718-.414062-2.605468-.484374-3.898437-.210937l-50.851563 10.835937 3.328125-3.324218c10.429688-10.414063 11.652344-26.992188 2.84375-38.558594-6.488281-8.519531-9.777343-17.550781-9.777343-26.84375 0-22.230469 19.914062-43.628906 51.976562-55.84375 3.871094-1.476562 5.8125-5.8125 4.335938-9.679688-1.472657-3.871093-5.808594-5.8125-9.675782-4.339843-38.597656 14.703125-61.636718 40.820312-61.636718 69.863281 0 12.652344 4.320312 24.738281 12.84375 35.929688 4.277343 5.617187 3.628906 13.726562-1.507813 18.859374l-21.277344 21.25c-2.355469 2.351563-2.878906 5.964844-1.292969 8.886719 1.332032 2.449219 3.882813 3.921875 6.589844 3.921875.519532 0 1.042969-.054687 1.5625-.164062l73.714844-15.707032c17.316406 5.433594 36.683594 8.296876 56.152344 8.296876 33.238281 0 64.59375-8.070313 88.292968-22.726563 24.820313-15.351563 38.492188-36.144531 38.492188-58.542969 0-22.402344-13.671875-43.195312-38.492188-58.546875zm0 0"/><path d="m389.992188 133.195312c0-4.824218 2.613281-9.28125 6.660156-11.351562 11.03125-5.644531 17.664062-17.296875 16.894531-29.683594-.96875-15.609375-13.472656-28.113281-29.082031-29.082031-8.695313-.546875-16.957032 2.433594-23.277344 8.378906-6.234375 5.855469-9.808594 14.121094-9.808594 22.675781 0 4.140626 3.355469 7.5 7.5 7.5 4.144532 0 7.5-3.359374 7.5-7.5 0-4.496093 1.804688-8.667968 5.082032-11.746093 3.273437-3.078125 7.5625-4.617188 12.074218-4.339844 7.941406.496094 14.546875 7.101563 15.039063 15.042969.398437 6.429687-3.035157 12.476562-8.753907 15.398437-9.148437 4.683594-14.828124 14.148438-14.828124 24.707031v2.550782c0 4.144531 3.359374 7.5 7.5 7.5 4.144531 0 7.5-3.355469 7.5-7.5zm0 0"/><path d="m382.492188 153.96875c-4.140626 0-7.5 3.355469-7.5 7.5v.339844c0 4.144531 3.359374 7.5 7.5 7.5 4.144531 0 7.5-3.355469 7.5-7.5v-.339844c0-4.144531-3.355469-7.5-7.5-7.5zm0 0"/></svg>