<svg height="496pt" viewBox="0 0 496 496" width="496pt" xmlns="http://www.w3.org/2000/svg"><path d="m376 360c0 70.691406-57.308594 128-128 128s-128-57.308594-128-128 57.308594-128 128-128 128 57.308594 128 128zm0 0" fill="#cf9e76"/><path d="m350.007812 282.910156c-23.367187-30.871094-60.304687-50.910156-102.007812-50.910156-70.695312 0-128 57.304688-128 128 0 2.039062.207031 4.023438.304688 6.039062l3.261718 1.960938h164.433594c17.648438 0 32-14.351562 32-32 0-1.40625-.097656-2.792969-.265625-4.144531 9.707031-5.496094 16.265625-15.925781 16.265625-27.855469 0-1.40625-.097656-2.792969-.265625-4.144531 6.578125-3.726563 11.648437-9.75 14.273437-16.945313zm0 0" fill="#b27946"/><path d="m320 256h-16c8.839844 0 16-7.160156 16-16s-7.160156-16-16-16h-88v-32h-80l-40 24h-56v112h48l40 24h160c8.839844 0 16-7.160156 16-16s-7.160156-16-16-16h16c8.839844 0 16-7.160156 16-16s-7.160156-16-16-16h16c8.839844 0 16-7.160156 16-16s-7.160156-16-16-16zm0 0" fill="#f5e0cd"/><path d="m8 200h32v144h-32zm0 0" fill="#b4dd7f"/><path d="m184 320v-16h104c10.433594 0 19.625 5.089844 25.472656 12.832031-2.65625 1.96875-5.914062 3.167969-9.472656 3.167969zm0 0" fill="#f0d0b4"/><path d="m184 288v-16h120c10.433594 0 19.625 5.089844 25.472656 12.832031-2.65625 1.96875-5.914062 3.167969-9.472656 3.167969zm0 0" fill="#f0d0b4"/><path d="m400 40-40-24h-120c-4.414062 0-8 3.585938-8 8 0 13.257812 10.742188 24 24 24h-64c-8.839844 0-16 7.160156-16 16s7.160156 16 16 16h-16c-8.839844 0-16 7.160156-16 16s7.160156 16 16 16h16c-8.839844 0-16 7.160156-16 16 0 4.121094 1.558594 7.878906 4.121094 10.71875l11.878906 5.28125h96v32h80l40-24h48v-112zm0 0" fill="#f5e0cd"/><g fill="#f0d0b4"><path d="m184 256v-16h104c10.433594 0 19.625 5.089844 25.472656 12.832031-2.65625 1.96875-5.914062 3.167969-9.472656 3.167969zm0 0"/><path d="m312 80v16h-120c-10.433594 0-19.625-5.089844-25.472656-12.832031 2.65625-1.96875 5.914062-3.167969 9.472656-3.167969zm0 0"/><path d="m312 48v16h-104c-10.433594 0-19.625-5.089844-25.472656-12.832031 2.65625-1.96875 5.914062-3.167969 9.472656-3.167969zm0 0"/><path d="m312 112v16h-104c-10.433594 0-19.625-5.089844-25.472656-12.832031 2.65625-1.96875 5.914062-3.167969 9.472656-3.167969zm0 0"/></g><path d="m456 24h32v144h-32zm0 0" fill="#b4dd7f"/><path d="m144 8h-104v96h-24l40 56 40-56h-24v-64h72zm0 0" fill="#ff826e"/><path d="m368 488h88v-96h24l-40-56-40 56h24v64h-56zm0 0" fill="#ff826e"/><path d="m288 224 40-64v-1.375c0-12.496094-10.128906-22.625-22.625-22.625-6 0-11.757812 2.382812-16 6.625l-9.375 9.375s-8-16-32-16-32 16-32 16l-9.375-9.375c-4.242188-4.242188-10-6.625-16-6.625-12.496094 0-22.625 10.128906-22.625 22.625v1.375l40 64zm0 0" fill="#cf9e76"/><path d="m198 208 10 16h80l10-16zm0 0" fill="#b27946"/><path d="m448 16v16h-45.785156l-40-24h-122.214844c-8.824219 0-16 7.175781-16 16 0 5.855469 1.695312 11.273438 4.449219 16h-36.449219c-13.230469 0-24 10.769531-24 24 0 3.160156.648438 6.160156 1.761719 8.929688-10.203125 2.757812-17.761719 12.007812-17.761719 23.070312s7.558594 20.3125 17.761719 23.070312c-1.113281 2.769532-1.761719 5.769532-1.761719 8.929688 0 2.9375.542969 5.808594 1.558594 8.503906-5.855469 5.574219-9.558594 13.40625-9.558594 22.128906v3.664063l13.566406 21.703125h-39.78125l-40 24h-45.785156v-16h-48v160h48v-16h37.785156l26.605469 15.960938c-.160156 2.6875-.390625 5.375-.390625 8.039062 0 74.992188 61.007812 136 136 136s136-61.007812 136-136c0-37.351562-15.601562-73.28125-42.742188-98.902344-3.058593-5.929687-8.457031-10.394531-15.027343-12.167968 1.121093-2.769532 1.769531-5.769532 1.769531-8.929688 0-13.230469-10.769531-24-24-24h-1.566406l20-32h47.78125l40-24h37.785156v16h48v-160zm-416 320h-16v-128h16zm216 144c-66.167969 0-120-53.832031-120-120h136c8.824219 0 16 7.175781 16 16s-7.175781 16-16 16h-32c-8.824219 0-16-7.175781-16-16h-16c0 17.648438 14.351562 32 32 32h8v16h16v-16h8c17.648438 0 32-14.351562 32-32 0-5.992188-1.761719-11.535156-4.632812-16.335938 11.632812-1.65625 20.632812-11.585937 20.632812-23.664062 0-3.160156-.648438-6.160156-1.761719-8.929688 10.203125-2.765624 17.761719-12.007812 17.761719-23.070312 0-3.160156-.648438-6.160156-1.761719-8.929688 6.152344-1.671874 11.289063-5.6875 14.425781-11.078124 17.449219 21.328124 27.335938 48.191406 27.335938 76.007812 0 66.167969-53.832031 120-120 120zm64-240c0 4.40625-3.585938 8-8 8h-120v16h136c4.414062 0 8 3.59375 8 8s-3.585938 8-8 8h-136v16h120c4.414062 0 8 3.59375 8 8s-3.585938 8-8 8h-120v16h104c4.414062 0 8 3.59375 8 8s-3.585938 8-8 8h-157.785156l-40-24h-42.214844v-96h50.214844l40-24h45.351562l10 16h-9.566406v16h120c4.414062 0 8 3.59375 8 8zm-99.566406-24-36.410156-58.257812c.464843-7.652344 6.832031-13.742188 14.601562-13.742188 3.847656 0 7.613281 1.558594 10.34375 4.289062l17.03125 16.855469 5.105469-9.457031c.253906-.480469 6.503906-11.6875 24.894531-11.6875s24.640625 11.207031 24.839844 11.574219l4.960937 9.929687 17.222657-17.222656c2.738281-2.722656 6.496093-4.28125 10.351562-4.28125 7.769531 0 14.144531 6.089844 14.601562 13.742188l-36.410156 58.257812zm193.351562-72-40 24h-33.351562l3.566406-5.703125v-3.664063c0-16.898437-13.742188-30.632812-30.625-30.632812-8.183594 0-15.871094 3.183594-21.65625 8.976562l-3.101562 3.09375c-5.90625-5.644531-16.226563-12.070312-32.617188-12.070312s-26.710938 6.425781-32.617188 12.070312l-3.101562-3.09375c-5.785156-5.792968-13.464844-8.976562-21.65625-8.976562-2.234375 0-4.394531.273438-6.488281.726562-.023438-.246093-.136719-.480468-.136719-.726562 0-4.40625 3.585938-8 8-8h120v-16h-136c-4.414062 0-8-3.59375-8-8s3.585938-8 8-8h136v-16h-120c-4.414062 0-8-3.59375-8-8s3.585938-8 8-8h120v-16h-56c-8.824219 0-16-7.175781-16-16h117.785156l40 24h50.214844v96zm74.214844 16h-16v-128h16zm0 0"/><path d="m128 0h16v16h-16zm0 0"/><path d="m128 32h16v16h-16zm0 0"/><path d="m111.542969 96h-31.542969v-48h32v-16h-48v80h16.457031l-24.457031 34.230469-24.457031-34.230469h16.457031v-96h64v-16h-80v96h-31.542969l55.542969 77.769531zm0 0"/><path d="m368 480h16v16h-16zm0 0"/><path d="m368 448h16v16h-16zm0 0"/><path d="m384.457031 400h31.542969v48h-16v16h32v-80h-16.457031l24.457031-34.230469 24.457031 34.230469h-16.457031v96h-48v16h64v-96h31.542969l-55.542969-77.769531zm0 0"/></svg>